# xmcd CD database file
#
# Track frame offsets:
#	150
#	5174
#	18562
#	29271
#	45979
#	57838
#	70254
#	84021
#	99376
#	112119
#	125117
#	139687
#	153543
#	169869
#	193245
#	205191
#	218430
#	234901
#	249856
#	265618
#	279612
#	291484
#	305711
#	319733
#
# Disc length: 4382 seconds
#
# Revision: 0
# Processed by: cddbd v1.5.2PL0 Copyright (c) Steve Scherf et al.
# Submitted via: CDex 1.51
#
DISCID=57111c18
DTITLE=Ulli`s Country Band - Own Songs and 6
DYEAR=1900
DGENRE=Country
TTITLE0=Banjo bird
TTITLE1=Small sweet lady
TTITLE2=Dark haired girl
TTITLE3=Starry night
TTITLE4=Little girl
TTITLE5=You´re the reason
TTITLE6=You´re the sunshine of my life
TTITLE7=Dreaming about you
TTITLE8=Travelling on life´s highway
TTITLE9=Muspelheim
TTITLE10=Little girl 2
TTITLE11=My little girl is gone
TTITLE12=Loser in love
TTITLE13=Dreaming about you 2
TTITLE14=I love country music
TTITLE15=You´re the reason 2
TTITLE16=Dreaming about you 3
TTITLE17=Little girl 3
TTITLE18=Help me make it through the night
TTITLE19=Truck driving man
TTITLE20=Ruby
TTITLE21=O`cangaceiro
TTITLE22=Good hearted woman
TTITLE23=Muspelheim blues
EXTD=
EXTT0=
EXTT1=
EXTT2=
EXTT3=
EXTT4=
EXTT5=
EXTT6=
EXTT7=
EXTT8=
EXTT9=
EXTT10=
EXTT11=
EXTT12=
EXTT13=
EXTT14=
EXTT15=
EXTT16=
EXTT17=
EXTT18=
EXTT19=
EXTT20=
EXTT21=
EXTT22=
EXTT23=
PLAYORDER=
